<svg width="48" height="48" viewBox="0 0 48 48" fill="none" xmlns="http://www.w3.org/2000/svg">
<path d="M32.4145 1C29.0582 1 25.9833 2.39131 23.5938 4.70105C21.2042 2.39131 18.1293 1 14.773 1C7.16631 1 1 8.1389 1 16.9452C1 20.704 2.20394 24.0873 4.00281 26.8849C7.41241 32.1875 23.5938 45.9881 23.5938 45.9881C23.5938 45.9881 39.7751 32.1875 43.1847 26.8848C44.9836 24.0872 46.1875 20.7039 46.1875 16.9451C46.1875 8.1389 40.0212 1 32.4145 1Z" stroke="#D45AC4" stroke-width="2" stroke-miterlimit="10"/>
<path d="M13.4671 22.309C16.5642 22.309 19.0749 19.4024 19.0749 15.8168C19.0749 12.2313 16.5642 9.32471 13.4671 9.32471C10.37 9.32471 7.85938 12.2313 7.85938 15.8168C7.85938 19.4024 10.37 22.309 13.4671 22.309Z" stroke="#D45AC4" stroke-width="2" stroke-miterlimit="10"/>
<path d="M20.4141 28.8976C19.7669 25.1404 16.9025 22.3091 13.4669 22.3091C9.55447 22.3091 6.38281 25.9809 6.38281 30.5104" stroke="#D45AC4" stroke-width="2" stroke-miterlimit="10"/>
<path d="M33.721 22.309C36.8181 22.309 39.3288 19.4024 39.3288 15.8168C39.3288 12.2313 36.8181 9.32471 33.721 9.32471C30.624 9.32471 28.1133 12.2313 28.1133 15.8168C28.1133 19.4024 30.624 22.309 33.721 22.309Z" stroke="#D45AC4" stroke-width="2" stroke-miterlimit="10"/>
<path d="M26.7734 28.8975C27.4206 25.1403 30.285 22.3088 33.7206 22.3088C37.6331 22.3088 40.8047 25.9807 40.8047 30.5102" stroke="#D45AC4" stroke-width="2" stroke-miterlimit="10"/>
<path d="M23.5941 28.0263C26.6912 28.0263 29.2018 25.1196 29.2018 21.5341C29.2018 17.9486 26.6912 15.042 23.5941 15.042C20.497 15.042 17.9863 17.9486 17.9863 21.5341C17.9863 25.1196 20.497 28.0263 23.5941 28.0263Z" stroke="#D45AC4" stroke-width="2" stroke-miterlimit="10"/>
<path d="M30.678 39.7917V36.2275C30.678 31.698 27.5064 28.0261 23.5939 28.0261C19.6814 28.0261 16.5098 31.698 16.5098 36.2275V39.7917" stroke="#D45AC4" stroke-width="2" stroke-miterlimit="10"/>
</svg>
